<svg xmlns="http://www.w3.org/2000/svg" xmlns:xlink="http://www.w3.org/1999/xlink" data-name="Layer 2" preserveAspectRatio="xMidYMid meet" version="1.0" viewBox="-2.1 0.0 161.6 202.0" zoomAndPan="magnify" style="fill: rgb(0, 0, 0);" original_string_length="2248"><g data-name="Layer 1"><g><g id="__id12_sh0785hgor"><path d="M83.12,39.18c2.6,0,5.18,.13,7.71,.39,.5,1.6,1.09,3.14,1.77,4.64-3.1-.41-6.26-.62-9.48-.62-27.97,0-52.21,15.97-64.11,39.28-1.68-.07-3.31-.09-4.89-.05,12.25-25.8,38.54-43.63,69-43.63h0Zm9.03,.81c.55,1.49,1.17,2.97,1.87,4.42h.07c-.72-1.45-1.37-2.93-1.94-4.42h0ZM17.27,144.55l.09,.19c-2.72-3.09-5.11-6.46-7.2-10.11,2.06,3.57,4.43,6.87,7.11,9.92h0Zm1.52,3.23c-3.63-3.54-6.74-7.56-9.32-12.07,8.85,32.37,38.47,56.17,73.65,56.17,6.66,0,13.12-.86,19.27-2.46-1.49-1.18-3.05-2.32-4.68-3.43-4.71,.97-9.6,1.49-14.6,1.49-28.14,0-52.5-16.16-64.32-39.69h0Zm126.1-77.11c.21,.29,.43,.59,.64,.89-.08,2.42-.26,4.85-.53,7.27l-.14-.23c.06-2.68,.07-5.32,.03-7.93h0Zm.64,.89c-.08,2.42-.26,4.85-.53,7.27,6.39,10.75,10.06,23.29,10.06,36.7,0,23.68-11.44,44.68-29.09,57.79-.75,2.49-1.51,4.79-2.28,6.9,21.49-13.51,35.77-37.43,35.77-64.68,0-16.37-5.16-31.54-13.93-43.97h0Zm-21.84,108.66c-.27,.17-.54,.34-.82,.51,.85-2.33,1.67-4.64,2.47-6.94,.21-.15,.42-.31,.63-.46-.75,2.49-1.51,4.79-2.28,6.9Z" fill-rule="evenodd" style="fill: rgb(28, 105, 43);"/></g><g id="__id13_sh0785hgor"><path d="M114.66,201.95c-3.34-52.49-28.76-80.95-76.25-85.37,33.11,6.09,54.83,26.51,65.16,61.23C58.41,153.95,7.66,155.55,10.93,93.42c59.25-1.03,95.23,31.03,107.94,96.17,31.77-85.28,27.06-141.8-14.13-169.57,19.45,19.11,27.95,38.02,25.51,56.72C98.43,51.04,87.43,27.82,97.29,7.07c29.49,4.84,45,28.65,46.52,71.44C148.09,31.64,131.22,5.47,93.17,0c-8.75,22.14-4.52,42.53,12.68,61.16,2.76,2.99,5.68,5.53,8.56,8.34,10.6,10.35,17.09,23.14,8.13,35.5-6.06,8.35-15.78,10.05-25.23,6.27-9.9-3.96-18.02-9.72-27.28-14.93C46.67,83.18,25.92,82.42,.04,84.98c-2.17,101.4,87.48,70.63,114.62,116.97Z" fill-rule="evenodd" style="fill: rgb(18, 107, 36);"/></g><g id="__id14_sh0785hgor"><circle cx="101" cy="88.1" r="18.3" style="fill: rgb(10, 54, 19);"/></g></g></g></svg>